<svg width="100" height="100" viewBox="0 0 100 100" fill="none" xmlns="http://www.w3.org/2000/svg">
<rect width="100" height="100" rx="25" fill="white"/>
<path d="M23.5 85V86.5H25H48.1292C53.7266 86.5 58.6614 85.6127 62.8951 83.7885L62.9043 83.7846L62.9135 83.7805C67.1414 81.8914 70.4705 79.1978 72.8368 75.6824C75.2886 72.153 76.5 68.0804 76.5 63.5205V36.3836C76.5 31.7654 75.2914 27.6858 72.829 24.2104C70.4594 20.7593 67.1286 18.1331 62.9043 16.3113C58.6674 14.4201 53.729 13.5 48.1292 13.5H25H23.5V15V85ZM57.8182 28.7069L57.8264 28.7139L57.8346 28.7206C60.1018 30.5833 61.2551 33.0822 61.2551 36.3836V63.5205C61.2551 66.8912 60.0971 69.4578 57.8263 71.3821C55.5219 73.2715 52.3428 74.2945 48.1292 74.2945H38.7449V25.7055H48.1292C52.3381 25.7055 55.5135 26.7577 57.8182 28.7069Z" fill="#1D1E2B" stroke="#6368E2" stroke-width="3"/>
</svg>
